<!-- icon666.com - MILLIONS vector ICONS FREE --><svg xmlns="http://www.w3.org/2000/svg" id="Layer_3" data-name="Layer 3" viewBox="0 0 64 64"><rect x="2.28" y="55" width="60" height="4" style="fill:#b3b9c1"></rect><path d="M52.28,44h-36l5.3-9.845A6,6,0,0,1,26.864,31H42.441a6,6,0,0,1,5.448,3.486Z" style="fill:#c7e2fb"></path><path d="M21.126,35l-.2.365a5.013,5.013,0,0,0-.144,1.135c0,4.142,5.112,7.5,11.418,7.5a17.165,17.165,0,0,0,2.076-.13V35Z" style="fill:#ebf7fe"></path><path d="M48.126,35h-13.5l-.2.365A5.013,5.013,0,0,0,34.28,36.5c0,4.142,5.113,7.5,11.419,7.5H52.28Z" style="fill:#ebf7fe"></path><path d="M26.864,31a6,6,0,0,0-5.283,3.155L21.126,35h27l-.237-.514A6,6,0,0,0,42.441,31Z" style="fill:#e47c6f"></path><path d="M44.28,2A17.993,17.993,0,0,0,32.993,34.011L32.28,39l6.066-2.022A17.993,17.993,0,1,0,44.28,2Z" style="fill:#e3e8f6"></path><circle cx="44.28" cy="20" r="15" style="fill:#f8f7fe"></circle><path d="M46.593,14.687A4.947,4.947,0,0,1,46.28,13a4.955,4.955,0,0,1,6.688-4.687L50.28,11v3h3l2.688-2.687A4.947,4.947,0,0,1,56.28,13a5,5,0,0,1-5,5,4.947,4.947,0,0,1-1.687-.313l-7.625,7.626A4.947,4.947,0,0,1,42.28,27a5,5,0,0,1-5,5,4.947,4.947,0,0,1-1.687-.313L38.28,29V26h-3l-2.687,2.687A4.947,4.947,0,0,1,32.28,27a4.955,4.955,0,0,1,6.688-4.687Z" style="fill:#b3b9c1"></path><polygon points="42.28 15 42.28 13 37.28 8 32.28 13 37.28 18 39.28 18 43.78 22.5 46.78 19.5 42.28 15" style="fill:#d1d5da"></polygon><rect x="46.952" y="19.136" width="5.657" height="12.728" transform="translate(-3.451 42.669) rotate(-45)" style="fill:#e47c6f"></rect><path d="M54.28,44h-38L7.023,45.984A6,6,0,0,0,2.28,51.85V55h58V50A6,6,0,0,0,54.28,44Z" style="fill:#e47c6f"></path><circle cx="13.28" cy="57" r="5" style="fill:#88929f"></circle><circle cx="51.28" cy="57" r="5" style="fill:#88929f"></circle><path d="M9.28,49l-4.3-2.149a5.989,5.989,0,0,0-2.7,5Z" style="fill:#f5b95b"></path><path d="M56.28,54v1h4V50A4,4,0,0,0,56.28,54Z" style="fill:#f5b95b"></path><path d="M62,54H61V50a7.008,7.008,0,0,0-7-7H52.64l-2.351-5.092A19,19,0,1,0,27.86,30H26.584a6.994,6.994,0,0,0-6.164,3.682l-4.841,8.99L4.447,37.1a1,1,0,0,0-1.279.34l-2,3,1.664,1.11,1.51-2.266L13,43.62l-6.47,1.386A7.035,7.035,0,0,0,1,51.851V59a1,1,0,0,0,1,1H7.812a5.986,5.986,0,0,0,10.376,0H45.812a5.986,5.986,0,0,0,10.376,0H62a1,1,0,0,0,1-1V55A1,1,0,0,0,62,54Zm-5,0a3,3,0,0,1,2-2.816V54ZM50.437,43H35V39.054l3.062-1.021a18.575,18.575,0,0,0,10.288.445ZM44,3a17,17,0,1,1-5.6,33.034.993.993,0,0,0-.646,0l-4.531,1.51.484-3.387a1,1,0,0,0-.362-.92A16.992,16.992,0,0,1,44,3ZM26.584,32h2.723A19.174,19.174,0,0,0,31.2,34H22.589A4.99,4.99,0,0,1,26.584,32Zm-5.141,4h9.976l-.409,2.859A1,1,0,0,0,32,40a.983.983,0,0,0,.316-.052L33,39.72V43H17.674ZM18.188,54A5.986,5.986,0,0,0,7.812,54H3V52.523l6.377-2.6a1,1,0,0,0,.07-1.821L7.1,46.93,16.105,45H33v9ZM4.808,48.022l1.77.885-3.3,1.346A5.043,5.043,0,0,1,4.808,48.022ZM3,58V56H7.09a5.6,5.6,0,0,0,0,2Zm10,3a4,4,0,1,1,4-4A4,4,0,0,1,13,61Zm5.91-3a5.6,5.6,0,0,0,0-2H45.09a5.6,5.6,0,0,0,0,2Zm26.9-4H35V45H54a5,5,0,0,1,4.912,4.127,5,5,0,0,0-3.723,3.585A5.984,5.984,0,0,0,45.812,54ZM51,61a4,4,0,1,1,4-4A4,4,0,0,1,51,61Zm10-3H56.91a5.6,5.6,0,0,0,0-2H61Z"></path><rect x="27" y="47" width="4" height="2"></rect><path d="M33.02,29.4,35.414,27H37v1.586L34.6,30.98a1,1,0,0,0,.368,1.648A5.955,5.955,0,0,0,43,27a5.727,5.727,0,0,0-.181-1.405l.681-.681,7.793,7.793a1,1,0,0,0,1.414,0l4-4a1,1,0,0,0,0-1.414L48.914,19.5l.681-.681A5.727,5.727,0,0,0,51,19a5.955,5.955,0,0,0,5.628-8.027,1,1,0,0,0-1.648-.368L52.586,13H51V11.414L53.4,9.02a1,1,0,0,0-.368-1.648A5.955,5.955,0,0,0,45,13a5.727,5.727,0,0,0,.181,1.4L44,15.586l-1-1V13a1,1,0,0,0-.293-.707l-5-5a1,1,0,0,0-1.414,0l-5,5a1,1,0,0,0,0,1.414l5,5A1,1,0,0,0,37,19h1.586l1,1-1.181,1.181A5.727,5.727,0,0,0,37,21a5.955,5.955,0,0,0-5.628,8.027,1,1,0,0,0,1.648.368ZM52,30.586,44.414,23,47,20.414,54.586,28ZM47.02,15.4a1,1,0,0,0,.233-1.047A3.937,3.937,0,0,1,47,13a4.006,4.006,0,0,1,3.562-3.976l-1.269,1.269A1,1,0,0,0,49,11v3a1,1,0,0,0,1,1h3a1,1,0,0,0,.707-.293l1.269-1.269A4.006,4.006,0,0,1,51,17a3.937,3.937,0,0,1-1.348-.253,1,1,0,0,0-1.047.233l-1.147,1.148a.977.977,0,0,0-.916,0L45.414,17ZM37.414,17l-4-4L37,9.414l4,4V15a1,1,0,0,0,.293.707L45.086,19.5,43.5,21.086l-3.793-3.793A1,1,0,0,0,39,17ZM37,23a3.937,3.937,0,0,1,1.348.253A1,1,0,0,0,39.4,23.02L41,21.414l1.128,1.128a.977.977,0,0,0,0,.916L40.98,24.605a1,1,0,0,0-.233,1.047A3.937,3.937,0,0,1,41,27a4.006,4.006,0,0,1-3.562,3.976l1.269-1.269A1,1,0,0,0,39,29V26a1,1,0,0,0-1-1H35a1,1,0,0,0-.707.293l-1.269,1.269A4.006,4.006,0,0,1,37,23Z"></path></svg>